# Wavefront Obj file
# 
# verts: 120 uv-s: 228
mtllib Bishop.mtl

g Group15725
#pivot 0.000000 0.000000 0.000000

v 0.003666 -0.014520 -0.006350
v 0.007331 -0.014520 -0.000001
v -0.003666 -0.014520 -0.006350
v -0.007331 -0.014520 -0.000001
v 0.005238 -0.011534 -0.009074
v 0.010476 -0.011534 -0.000001
v -0.005238 -0.011534 -0.009074
v -0.010476 -0.011534 -0.000001
v 0.003666 -0.014520 0.006348
v -0.003666 -0.014520 0.006348
v 0.005238 -0.011534 0.009072
v -0.005238 -0.011534 0.009072
v -0.004133 -0.009923 -0.007159
v 0.004133 -0.009923 -0.007159
v -0.008266 -0.009923 -0.000001
v 0.008266 -0.009923 -0.000001
v -0.004133 -0.009923 0.007157
v 0.004133 -0.009923 0.007157
v -0.003921 -0.013027 -0.006792
v 0.003921 -0.013027 -0.006792
v -0.007842 -0.013027 -0.000001
v 0.007842 -0.013027 -0.000001
v -0.003921 -0.013027 0.006790
v 0.003921 -0.013027 0.006790
v -0.007571 -0.031806 -0.013115
v 0.007571 -0.031806 -0.013115
v -0.015142 -0.031806 -0.000001
v -0.007571 -0.031806 0.013113
v 0.007571 -0.031806 0.013113
v 0.015142 -0.031806 -0.000001
v -0.001091 0.012542 -0.001827
v 0.001091 0.012542 -0.001827
v -0.002181 0.012542 0.000062
v -0.001091 0.012542 0.001951
v 0.001091 0.012542 0.001951
v 0.002181 0.012542 0.000062
v -0.001927 0.005821 -0.003276
v 0.001927 0.005821 -0.003276
v -0.003854 0.005821 0.000062
v -0.001927 0.005821 0.003400
v 0.001918 0.005790 0.003415
v 0.003854 0.005821 0.000062
v 0.008824 -0.031617 -0.015284
v -0.008824 -0.031617 -0.015284
v -0.008824 -0.037318 -0.015284
v 0.008824 -0.037319 -0.015284
v -0.017647 -0.031617 -0.000001
v -0.017647 -0.037318 -0.000001
v -0.008824 -0.031617 0.015282
v -0.008824 -0.037319 0.015282
v 0.008824 -0.031617 0.015282
v 0.008824 -0.037319 0.015282
v 0.017647 -0.031617 -0.000001
v 0.017647 -0.037319 -0.000001
v 0.000000 -0.046349 0.000013
v -0.010844 -0.046341 -0.018783
v 0.010844 -0.046341 -0.018783
v 0.010844 -0.037319 -0.018783
v -0.010844 -0.037318 -0.018783
v -0.021688 -0.046341 -0.000001
v -0.021688 -0.037319 -0.000001
v -0.010844 -0.046341 0.018782
v -0.010844 -0.037319 0.018782
v 0.010844 -0.046341 0.018781
v 0.010844 -0.037319 0.018781
v 0.021688 -0.046342 -0.000001
v 0.021688 -0.037318 -0.000001
v -0.004881 -0.008581 -0.008425
v 0.004881 -0.008581 -0.008425
v -0.004402 -0.002806 -0.007579
v 0.004402 -0.002806 -0.007579
v -0.009762 -0.008581 0.000029
v -0.008805 -0.002806 0.000046
v -0.004881 -0.008581 0.008483
v -0.004402 -0.002806 0.007671
v 0.004881 -0.008582 0.008483
v 0.004402 -0.002806 0.007671
v 0.009762 -0.008582 0.000029
v 0.008805 -0.002806 0.000046
v 0.000452 0.012818 -0.000721
v -0.000452 0.012818 -0.000721
v -0.000904 0.012818 0.000062
v -0.000452 0.012818 0.000845
v 0.000452 0.012818 0.000845
v 0.000904 0.012818 0.000062
v -0.000439 0.015402 -0.000699
v 0.000439 0.015402 -0.000699
v 0.000000 0.015383 0.000062
v -0.000878 0.015402 0.000062
v -0.000439 0.015402 0.000823
v 0.000435 0.015402 0.000815
v 0.000878 0.015402 0.000062
v -0.000656 0.013538 -0.001074
v 0.000656 0.013538 -0.001074
v -0.000649 0.014682 -0.001063
v 0.000649 0.014682 -0.001063
v -0.001311 0.013538 0.000062
v -0.001299 0.014682 0.000062
v -0.000656 0.013538 0.001198
v -0.000649 0.014682 0.001187
v 0.000656 0.013538 0.001198
v 0.000649 0.014682 0.001187
v 0.001311 0.013538 0.000062
v 0.001299 0.014682 0.000062
v 0.003707 -0.000381 -0.006369
v 0.007413 -0.000381 0.000051
v -0.003707 -0.000381 -0.006369
v -0.007413 -0.000381 0.000051
v 0.002656 0.003280 0.004658
v 0.002322 0.004383 0.004112
v -0.002662 0.003259 0.004669
v -0.002340 0.004383 0.004112
v 0.007561 -0.001324 0.000730
v -0.007561 -0.001324 0.000730
v -0.011093 -0.026302 -0.000001
v -0.005546 -0.026302 0.009606
v 0.005546 -0.026302 0.009606
v 0.011093 -0.026303 -0.000001
v 0.005546 -0.026302 -0.009608
v -0.005546 -0.026302 -0.009608
# 120 positions

vt 0.162738 0.687302
vt 0.162738 0.756380
vt 0.114911 0.756380
vt 0.114911 0.687302
vt 0.718198 0.642869
vt 0.641148 0.642556
vt 0.652196 0.623954
vt 0.707592 0.623989
vt 0.061143 0.582933
vt 0.065302 0.578842
vt 0.069965 0.586830
vt 0.064359 0.588441
vt 0.061783 0.756380
vt 0.061783 0.687302
vt 0.107958 0.687302
vt 0.107958 0.756380
vt 0.757026 0.576406
vt 0.735390 0.576124
vt 0.072290 0.574814
vt 0.076908 0.582724
vt 0.603455 0.575168
vt 0.625077 0.575441
vt 0.655107 0.719487
vt 0.612795 0.731664
vt 0.588136 0.679774
vt 0.623689 0.655334
vt 0.542806 0.641193
vt 0.568235 0.617161
vt 0.719950 0.508883
vt 0.709080 0.527582
vt 0.653546 0.527688
vt 0.642792 0.508883
vt 0.600411 0.787296
vt 0.613856 0.791365
vt 0.594694 0.794714
vt 0.588970 0.312085
vt 0.464516 0.312085
vt 0.450268 0.287407
vt 0.603218 0.287407
vt 0.111804 0.609544
vt 0.111804 0.631735
vt 0.088607 0.631735
vt 0.088607 0.609544
vt 0.317956 0.625320
vt 0.165089 0.625368
vt 0.241564 0.492908
vt 0.564241 0.746176
vt 0.547565 0.710538
vt 0.500024 0.515163
vt 0.459882 0.448093
vt 0.479568 0.447815
vt 0.509901 0.498125
vt 0.496760 0.379050
vt 0.506645 0.396018
vt 0.575223 0.379049
vt 0.565347 0.396087
vt 0.615365 0.446120
vt 0.595679 0.446399
vt 0.578487 0.515163
vt 0.568603 0.498195
vt 0.539399 0.654916
vt 0.315902 0.926369
vt 0.468853 0.926369
vt 0.468853 0.990000
vt 0.315902 0.990000
vt 0.140521 0.609544
vt 0.140521 0.631735
vt 0.402289 0.419867
vt 0.373793 0.419867
vt 0.621804 0.926369
vt 0.621804 0.990000
vt 0.788801 0.413286
vt 0.788801 0.288831
vt 0.829009 0.288831
vt 0.829009 0.413286
vt 0.059964 0.676017
vt 0.059964 0.631735
vt 0.088607 0.676017
vt 0.167843 0.286536
vt 0.075334 0.339948
vt 0.059987 0.331085
vt 0.167846 0.268813
vt 0.084146 0.573225
vt 0.081079 0.578536
vt 0.077951 0.573225
vt 0.075336 0.446769
vt 0.059987 0.455630
vt 0.087244 0.578590
vt 0.090341 0.573225
vt 0.293211 0.767485
vt 0.364014 0.767485
vt 0.364014 0.778689
vt 0.293211 0.778689
vt 0.530940 0.655859
vt 0.191973 0.747959
vt 0.196609 0.755923
vt 0.181040 0.755923
vt 0.185619 0.747928
vt 0.222408 0.767485
vt 0.222408 0.778689
vt 0.059964 0.609544
vt 0.434817 0.767485
vt 0.434817 0.778689
vt 0.151606 0.767485
vt 0.151606 0.778689
vt 0.080803 0.778689
vt 0.080803 0.767485
vt 0.080861 0.597969
vt 0.079453 0.592308
vt 0.088702 0.592354
vt 0.087238 0.598000
vt 0.497840 0.692547
vt 0.473626 0.679915
vt 0.485441 0.627607
vt 0.079538 0.584242
vt 0.088697 0.584288
vt 0.492332 0.605859
vt 0.010000 0.778689
vt 0.010000 0.767485
vt 0.788801 0.911105
vt 0.788801 0.786652
vt 0.829009 0.786652
vt 0.829009 0.911105
vt 0.167849 0.500178
vt 0.260358 0.446765
vt 0.275706 0.455629
vt 0.167847 0.517902
vt 0.260355 0.339944
vt 0.275705 0.331085
vt 0.788801 0.662194
vt 0.829009 0.662194
vt 0.788801 0.164377
vt 0.829009 0.164377
vt 0.788801 0.537741
vt 0.829009 0.537741
vt 0.588973 0.527648
vt 0.651198 0.419865
vt 0.679694 0.419865
vt 0.603221 0.552325
vt 0.394515 0.757828
vt 0.241564 0.757828
vt 0.010000 0.926369
vt 0.162951 0.926369
vt 0.162951 0.990000
vt 0.010000 0.990000
vt 0.774755 0.926369
vt 0.927705 0.926369
vt 0.927705 0.990000
vt 0.774755 0.990000
vt 0.470990 0.625369
vt 0.464518 0.527648
vt 0.450271 0.552325
vt 0.394515 0.492909
vt 0.658322 0.915020
vt 0.604915 0.912862
vt 0.611302 0.852158
vt 0.647366 0.850185
vt 0.649766 0.784547
vt 0.523138 0.567521
vt 0.076861 0.563731
vt 0.081048 0.567859
vt 0.072282 0.571663
vt 0.536399 0.864808
vt 0.492657 0.841113
vt 0.497468 0.826694
vt 0.545415 0.837731
vt 0.069899 0.559659
vt 0.065274 0.567669
vt 0.470889 0.733101
vt 0.457105 0.726159
vt 0.091431 0.582719
vt 0.096010 0.574787
vt 0.064284 0.558075
vt 0.061095 0.563599
vt 0.498780 0.811403
vt 0.547414 0.810253
vt 0.192035 0.736954
vt 0.196614 0.728957
vt 0.204393 0.742442
vt 0.195180 0.742474
vt 0.173261 0.742438
vt 0.182475 0.742407
vt 0.181046 0.728957
vt 0.185681 0.736921
vt 0.087244 0.567859
vt 0.087335 0.548449
vt 0.088770 0.554103
vt 0.079522 0.554103
vt 0.080957 0.548449
vt 0.088726 0.562169
vt 0.079567 0.562169
vt 0.107197 0.563599
vt 0.103018 0.567669
vt 0.098393 0.559659
vt 0.104008 0.558075
vt 0.096010 0.571663
vt 0.091431 0.563731
vt 0.104008 0.588375
vt 0.098393 0.586790
vt 0.103018 0.578781
vt 0.107197 0.582851
vt 0.111804 0.676017
vt 0.140521 0.676017
vt 0.593597 0.848508
vt 0.582234 0.901603
vt 0.222408 0.866504
vt 0.151606 0.866504
vt 0.080803 0.866504
vt 0.010000 0.866504
vt 0.434817 0.866504
vt 0.364014 0.866504
vt 0.293211 0.866504
vt 0.627325 0.640215
vt 0.576718 0.606878
vt 0.664512 0.708782
vt 0.638407 0.655943
vt 0.663500 0.786889
vt 0.670186 0.725706
vt 0.660345 0.848180
vt 0.670186 0.906015
vt 0.537195 0.563369
vt 0.222408 0.915020
vt 0.151606 0.915020
vt 0.080803 0.915020
vt 0.010000 0.915020
vt 0.434817 0.915020
vt 0.364014 0.915020
vt 0.293211 0.915020
# 228 texture coordinates

vn 0.499975 -0.010589 -0.865975
vn 0.999944 -0.010575 -0.000000
vn -0.499967 -0.010615 -0.865979
vn -0.999944 -0.010621 0.000000
vn 0.498800 -0.069400 -0.863934
vn 0.997589 -0.069398 -0.000002
vn -0.498790 -0.069402 -0.863940
vn -0.997589 -0.069403 0.000000
vn 0.499971 -0.010597 0.865977
vn -0.499971 -0.010616 0.865977
vn 0.498798 -0.069400 0.863936
vn -0.498796 -0.069403 0.863936
vn -0.498223 0.064516 -0.864645
vn 0.498212 0.064472 -0.864655
vn -0.998227 0.059500 -0.001707
vn 0.998232 0.059418 -0.001706
vn -0.500002 0.054486 0.864308
vn 0.499984 0.054448 0.864321
vn -0.379226 -0.651719 -0.656848
vn 0.379244 -0.651697 -0.656860
vn -0.758454 -0.651726 0.000001
vn 0.758488 -0.651687 -0.000001
vn -0.379228 -0.651723 0.656843
vn 0.379237 -0.651707 0.656854
vn -0.196421 0.919603 -0.340219
vn 0.196428 0.919606 -0.340206
vn -0.392847 0.919604 0.000003
vn -0.196424 0.919600 0.340225
vn 0.196427 0.919604 0.340214
vn 0.392852 0.919602 0.000003
vn -0.333312 0.745385 -0.577325
vn 0.333321 0.745384 -0.577321
vn -0.666632 0.745387 -0.000006
vn -0.333667 0.745380 0.577126
vn 0.332742 0.745437 0.577587
vn 0.666627 0.745391 0.000303
vn -0.463470 0.375363 -0.802682
vn 0.463486 0.375362 -0.802673
vn -0.927110 0.374790 0.000092
vn -0.463925 0.374296 0.802917
vn 0.462565 0.373990 0.803844
vn 0.927128 0.374742 0.001140
vn 0.310875 0.783225 -0.538438
vn -0.310870 0.783220 -0.538448
vn -0.327340 0.755921 -0.566950
vn 0.327313 0.755941 -0.566938
vn -0.621749 0.783217 0.000003
vn -0.654677 0.755909 0.000001
vn -0.310874 0.783211 0.538459
vn -0.327342 0.755918 0.566953
vn 0.310877 0.783216 0.538450
vn 0.327313 0.755939 0.566942
vn 0.621747 0.783218 0.000004
vn 0.654630 0.755949 0.000001
vn -0.000018 -1.000000 0.000000
vn -0.327418 -0.755789 -0.567080
vn 0.327397 -0.755790 -0.567092
vn 0.327313 0.755940 -0.566940
vn -0.327342 0.755919 -0.566951
vn -0.654826 -0.755780 -0.000001
vn -0.654678 0.755908 0.000001
vn -0.327417 -0.755790 0.567079
vn -0.327341 0.755918 0.566952
vn 0.327398 -0.755789 0.567092
vn 0.327312 0.755939 0.566942
vn 0.654803 -0.755799 0.000000
vn 0.654630 0.755949 0.000001
vn -0.468956 -0.344016 -0.813469
vn 0.468942 -0.344051 -0.813463
vn -0.470262 0.340062 -0.814378
vn 0.470274 0.340059 -0.814373
vn -0.936847 -0.349738 -0.001214
vn -0.923439 0.369812 0.102468
vn -0.467879 -0.355429 0.809172
vn -0.550600 0.368463 0.749049
vn 0.467858 -0.355460 0.809171
vn 0.550598 0.368471 0.749047
vn 0.936822 -0.349804 -0.001210
vn 0.923441 0.369806 0.102473
vn 0.440446 0.473318 -0.762874
vn -0.440440 0.473320 -0.762876
vn -0.880889 0.473324 -0.000008
vn -0.440447 0.473323 0.762871
vn 0.440445 0.473320 0.762873
vn 0.880890 0.473320 -0.000002
vn -0.230006 0.887911 -0.398387
vn 0.230005 0.887913 -0.398382
vn 0.000001 1.000000 0.000002
vn -0.460010 0.887914 -0.000003
vn -0.228908 0.888564 0.397562
vn 0.229510 0.888426 0.397523
vn 0.458754 0.888563 0.000542
vn -0.483712 -0.253123 -0.837825
vn 0.483717 -0.253124 -0.837822
vn -0.481332 0.270665 -0.833702
vn 0.481336 0.270668 -0.833699
vn -0.967433 -0.253127 -0.000004
vn -0.962673 0.270666 -0.000006
vn -0.483720 -0.253126 0.837820
vn -0.480708 0.271950 0.833644
vn 0.483714 -0.253126 0.837824
vn 0.481041 0.272749 0.833191
vn 0.967433 -0.253126 -0.000001
vn 0.962311 0.271951 0.000519
vn 0.433455 0.498765 -0.750567
vn 0.799543 0.442286 0.406342
vn -0.433438 0.498768 -0.750574
vn -0.799848 0.442391 0.405626
vn 0.425913 0.845785 0.321319
vn 0.342963 0.105791 0.933373
vn -0.426871 0.845359 0.321168
vn -0.343856 0.106079 0.933012
vn 0.622779 0.687422 0.373627
vn -0.623127 0.687177 0.373498
vn -0.889515 0.456906 -0.000001
vn -0.444755 0.456909 0.770342
vn 0.444758 0.456911 0.770340
vn 0.889517 0.456902 0.000001
vn 0.444763 0.456903 -0.770341
vn -0.444754 0.456902 -0.770347
# 120 normals

usemtl default
f 110/1/110 112/2/112 108/3/108 106/4/106
f 7/5/7 5/6/5 20/7/20 19/8/19
f 85/9/85 103/10/103 101/11/101 84/12/84
f 111/13/111 109/14/109 113/15/113 114/16/114
f 8/17/8 7/5/7 19/8/19 21/18/21
f 103/10/103 104/19/104 102/20/102 101/11/101
f 113/15/113 106/4/106 108/3/108 114/16/114
f 5/6/5 6/21/6 22/22/22 20/7/20
f 76/23/76 77/24/77 75/25/75 74/26/74
f 74/26/74 75/25/75 73/27/73 72/28/72
f 12/29/12 23/30/23 24/31/24 11/32/11
f 113/33/113 79/34/79 106/35/106
f 52/36/52 50/37/50 63/38/63 65/39/65
f 8/17/8 21/18/21 23/30/23 12/29/12
f 110/40/110 41/41/41 40/42/40 112/43/112
f 55/44/55 64/45/64 62/46/62
f 11/32/11 24/31/24 22/22/22 6/21/6
f 77/24/77 109/47/109 111/48/111 75/25/75
f 7/49/7 8/50/8 15/51/15 13/52/13
f 8/50/8 12/53/12 17/54/17 15/51/15
f 12/53/12 11/55/11 18/56/18 17/54/17
f 11/55/11 6/57/6 16/58/16 18/56/18
f 6/57/6 5/59/5 14/60/14 16/58/16
f 5/59/5 7/49/7 13/52/13 14/60/14
f 75/25/75 114/61/114 73/27/73
f 65/62/65 63/63/63 62/64/62 64/65/64
f 106/66/106 42/67/42 41/41/41 110/40/110
f 50/37/50 48/68/48 61/69/61 63/38/63
f 77/24/77 113/33/113 109/47/109
f 63/63/63 61/70/61 60/71/60 62/64/62
f 52/72/52 54/73/54 53/74/53 51/75/51
f 33/76/33 39/77/39 40/42/40 34/78/34
f 29/79/29 28/80/28 49/81/49 51/82/51
f 88/83/88 91/84/91 92/85/92
f 28/80/28 27/86/27 47/87/47 49/81/49
f 88/83/88 90/88/90 91/84/91
f 89/89/89 90/88/90 88/83/88
f 19/90/19 20/91/20 1/92/1 3/93/3
f 108/94/108 73/27/73 114/61/114
f 82/95/82 33/96/33 34/97/34 83/98/83
f 21/99/21 19/90/19 3/93/3 4/100/4
f 112/43/112 40/42/40 39/77/39 108/101/108
f 104/19/104 92/85/92 91/84/91 102/20/102
f 20/91/20 22/102/22 2/103/2 1/92/1
f 75/25/75 111/48/111 114/61/114
f 79/34/79 113/33/113 77/24/77
f 23/104/23 10/105/10 9/106/9 24/107/24
f 84/108/84 101/109/101 99/110/99 83/111/83
f 108/94/108 39/112/39 37/113/37 107/114/107
f 21/99/21 4/100/4 10/105/10 23/104/23
f 101/109/101 102/115/102 100/116/100 99/110/99
f 73/27/73 108/94/108 107/114/107 70/117/70
f 24/107/24 9/106/9 2/118/2 22/119/22
f 102/115/102 91/84/91 90/88/90 100/116/100
f 46/120/46 45/121/45 44/122/44 43/123/43
f 25/124/25 26/125/26 43/126/43 44/127/44
f 26/125/26 30/128/30 53/129/53 43/126/43
f 45/121/45 48/130/48 47/131/47 44/122/44
f 27/86/27 25/124/25 44/127/44 47/87/47
f 54/73/54 46/132/46 43/133/43 53/74/53
f 48/130/48 50/134/50 49/135/49 47/131/47
f 30/128/30 29/79/29 51/82/51 53/129/53
f 50/134/50 52/72/52 51/75/51 49/135/49
f 46/136/46 54/137/54 67/138/67 58/139/58
f 55/44/55 57/140/57 66/141/66
f 58/142/58 67/143/67 66/144/66 57/145/57
f 54/137/54 52/36/52 65/39/65 67/138/67
f 55/44/55 66/141/66 64/45/64
f 67/143/67 65/62/65 64/65/64 66/144/66
f 59/146/59 58/147/58 57/148/57 56/149/56
f 55/44/55 56/150/56 57/140/57
f 45/151/45 46/136/46 58/139/58 59/152/59
f 61/70/61 59/146/59 56/149/56 60/71/60
f 55/44/55 60/153/60 56/150/56
f 48/68/48 45/151/45 59/152/59 61/69/61
f 55/44/55 62/46/62 60/153/60
f 68/154/68 70/155/70 71/156/71 69/157/69
f 69/157/69 71/156/71 79/34/79 78/158/78
f 72/28/72 73/27/73 70/117/70 68/159/68
f 78/158/78 79/34/79 77/24/77 76/23/76
f 96/160/96 87/161/87 92/85/92 104/162/104
f 37/163/37 31/164/31 32/165/32 38/166/38
f 94/167/94 96/160/96 104/162/104 103/168/103
f 39/112/39 33/169/33 31/170/31 37/113/37
f 100/171/100 90/88/90 89/89/89 98/172/98
f 80/173/80 94/167/94 103/168/103 85/174/85
f 38/166/38 32/165/32 36/175/36 42/176/42
f 80/177/80 32/178/32 31/179/31 81/180/81
f 81/180/81 31/179/31 33/96/33 82/95/82
f 83/98/83 34/97/34 35/181/35 84/182/84
f 84/182/84 35/181/35 36/183/36 85/184/85
f 85/184/85 36/183/36 32/178/32 80/177/80
f 88/83/88 87/161/87 86/185/86
f 88/83/88 86/185/86 89/89/89
f 88/83/88 92/85/92 87/161/87
f 81/186/81 93/187/93 94/188/94 80/189/80
f 93/187/93 95/190/95 96/191/96 94/188/94
f 95/190/95 86/185/86 87/161/87 96/191/96
f 82/192/82 97/193/97 93/194/93 81/195/81
f 97/193/97 98/196/98 95/197/95 93/194/93
f 98/196/98 89/89/89 86/185/86 95/197/95
f 83/198/83 99/199/99 97/200/97 82/201/82
f 99/199/99 100/171/100 98/172/98 97/200/97
f 35/202/35 41/41/41 42/67/42 36/203/36
f 34/78/34 40/42/40 41/41/41 35/202/35
f 71/156/71 105/204/105 106/35/106 79/34/79
f 105/204/105 38/166/38 42/176/42 106/35/106
f 70/155/70 107/205/107 105/204/105 71/156/71
f 107/205/107 37/163/37 38/166/38 105/204/105
f 4/100/4 115/206/115 116/207/116 10/105/10
f 10/105/10 116/207/116 117/208/117 9/106/9
f 9/106/9 117/208/117 118/209/118 2/118/2
f 2/103/2 118/210/118 119/211/119 1/92/1
f 1/92/1 119/211/119 120/212/120 3/93/3
f 3/93/3 120/212/120 115/206/115 4/100/4
f 17/213/17 74/26/74 72/28/72 15/214/15
f 18/215/18 76/23/76 74/26/74 17/216/17
f 16/217/16 78/158/78 76/23/76 18/218/18
f 14/219/14 69/157/69 78/158/78 16/217/16
f 13/220/13 68/154/68 69/157/69 14/219/14
f 15/214/15 72/28/72 68/159/68 13/221/13
f 115/206/115 27/222/27 28/223/28 116/207/116
f 116/207/116 28/223/28 29/224/29 117/208/117
f 117/208/117 29/224/29 30/225/30 118/209/118
f 118/210/118 30/226/30 26/227/26 119/211/119
f 119/211/119 26/227/26 25/228/25 120/212/120
f 120/212/120 25/228/25 27/222/27 115/206/115

# 127 faces
