# Wavefront Obj file
# 
# verts: 62 uv-s: 111
mtllib Pawn.mtl

g Group62070
#pivot 0.000000 0.000000 0.000000

v 0.005752 -0.035305 -0.009964
v 0.011510 -0.035305 0.000008
v -0.005763 -0.035304 -0.009964
v -0.011521 -0.035305 0.000008
v -0.005763 -0.035305 0.009981
v 0.005752 -0.035305 0.009981
v 0.003675 -0.001254 -0.006367
v 0.007356 -0.001254 0.000008
v -0.003686 -0.001254 -0.006367
v -0.007367 -0.001254 0.000008
v -0.003686 -0.001254 0.006383
v 0.003675 -0.001254 0.006383
v 0.003675 -0.018637 -0.006367
v 0.007356 -0.018637 0.000008
v -0.003686 -0.018637 -0.006367
v -0.007367 -0.018637 0.000008
v -0.003686 -0.018637 0.006383
v 0.003675 -0.018637 0.006383
v 0.005299 -0.013940 -0.009179
v 0.010603 -0.013940 0.000008
v 0.005299 -0.005951 -0.009179
v 0.010603 -0.005951 0.000008
v -0.005310 -0.013940 -0.009179
v -0.005310 -0.005951 -0.009179
v -0.010614 -0.013940 0.000008
v -0.010614 -0.005951 0.000008
v -0.005310 -0.013940 0.009196
v -0.005310 -0.005951 0.009196
v 0.005299 -0.013940 0.009196
v 0.005299 -0.005951 0.009196
v 0.013415 -0.035161 0.000008
v 0.006705 -0.035161 -0.011614
v 0.006705 -0.039496 -0.011614
v 0.013415 -0.039496 0.000008
v -0.006716 -0.035161 -0.011614
v -0.006716 -0.039496 -0.011614
v -0.013426 -0.035161 0.000008
v -0.013426 -0.039496 0.000008
v -0.006716 -0.035161 0.011631
v -0.006716 -0.039497 0.011631
v 0.006704 -0.035161 0.011631
v 0.006705 -0.039497 0.011631
v -0.000006 -0.045890 0.000008
v 0.008241 -0.046358 -0.014275
v 0.016487 -0.046358 0.000008
v 0.016487 -0.039496 0.000008
v 0.008241 -0.039496 -0.014275
v -0.008252 -0.046358 -0.014275
v -0.008252 -0.039497 -0.014275
v -0.016499 -0.046358 0.000008
v -0.016499 -0.039496 0.000008
v -0.008252 -0.046358 0.014292
v -0.008252 -0.039497 0.014292
v 0.008241 -0.046359 0.014292
v 0.008241 -0.039496 0.014292
v 0.001673 0.000153 -0.002899
v 0.003351 0.000153 0.000008
v -0.000006 0.000153 0.000008
v -0.001684 0.000153 -0.002899
v -0.003362 0.000153 0.000008
v -0.001684 0.000153 0.002915
v 0.001673 0.000153 0.002915
# 62 positions

vt 0.525884 0.592817
vt 0.629061 0.592817
vt 0.629061 0.779296
vt 0.525884 0.779296
vt 0.010000 0.592817
vt 0.113177 0.592817
vt 0.113177 0.779296
vt 0.010000 0.779296
vt 0.216354 0.592817
vt 0.216354 0.779296
vt 0.319530 0.592817
vt 0.319530 0.779296
vt 0.422707 0.592817
vt 0.422707 0.779296
vt 0.629061 0.841287
vt 0.525884 0.841287
vt 0.629061 0.928010
vt 0.525884 0.928010
vt 0.629061 0.990000
vt 0.525884 0.990000
vt 0.113177 0.841287
vt 0.010000 0.841287
vt 0.113177 0.928010
vt 0.010000 0.928010
vt 0.113177 0.990000
vt 0.010000 0.990000
vt 0.216354 0.841287
vt 0.216354 0.928010
vt 0.216354 0.990000
vt 0.319530 0.841287
vt 0.319530 0.928010
vt 0.319530 0.990000
vt 0.422707 0.841287
vt 0.422707 0.928010
vt 0.422707 0.990000
vt 0.881459 0.550616
vt 0.881459 0.697077
vt 0.834141 0.697077
vt 0.834141 0.550616
vt 0.030857 0.136933
vt 0.093712 0.245802
vt 0.083282 0.263864
vt 0.010000 0.136931
vt 0.219423 0.245801
vt 0.229850 0.263865
vt 0.881459 0.843538
vt 0.834141 0.843538
vt 0.093709 0.028064
vt 0.083283 0.010000
vt 0.881459 0.404155
vt 0.834141 0.404155
vt 0.881459 0.990000
vt 0.834141 0.990000
vt 0.219419 0.028063
vt 0.229850 0.010002
vt 0.282275 0.136931
vt 0.303132 0.136933
vt 0.350793 0.375236
vt 0.350793 0.228774
vt 0.398112 0.228774
vt 0.398112 0.375236
vt 0.350793 0.082313
vt 0.398112 0.082313
vt 0.486515 0.301890
vt 0.413285 0.428730
vt 0.379750 0.428730
vt 0.469747 0.272848
vt 0.190045 0.428688
vt 0.280067 0.584611
vt 0.100022 0.584612
vt 0.749499 0.450012
vt 0.749499 0.270015
vt 0.824382 0.270015
vt 0.824382 0.450012
vt 0.486515 0.555570
vt 0.469747 0.584612
vt 0.010000 0.428689
vt 0.638129 0.990000
vt 0.638129 0.810004
vt 0.713014 0.810004
vt 0.713014 0.990000
vt 0.749499 0.630008
vt 0.824382 0.630008
vt 0.370089 0.428688
vt 0.632976 0.301890
vt 0.649743 0.272849
vt 0.749499 0.810004
vt 0.824382 0.810004
vt 0.280066 0.272765
vt 0.706206 0.428730
vt 0.739741 0.428731
vt 0.749499 0.990000
vt 0.824382 0.990000
vt 0.100021 0.272765
vt 0.632976 0.555570
vt 0.649743 0.584612
vt 0.638129 0.630007
vt 0.713014 0.630007
vt 0.556120 0.443839
vt 0.574356 0.475703
vt 0.537643 0.475564
vt 0.597529 0.515562
vt 0.514710 0.515562
vt 0.519406 0.443700
vt 0.473301 0.443838
vt 0.537884 0.411974
vt 0.514710 0.372115
vt 0.574597 0.412113
vt 0.597530 0.372115
vt 0.592833 0.443977
vt 0.638939 0.443839
# 111 texture coordinates

vn 0.269217 0.842672 -0.466290
vn 0.538422 0.842675 0.000006
vn -0.269215 0.842672 -0.466290
vn -0.538434 0.842668 0.000005
vn -0.269212 0.842671 0.466294
vn 0.269212 0.842671 0.466295
vn 0.297938 0.803084 -0.516033
vn 0.595874 0.803078 0.000007
vn -0.297932 0.803086 -0.516032
vn -0.595867 0.803083 0.000005
vn -0.297934 0.803079 0.516043
vn 0.297938 0.803075 0.516046
vn 0.491172 -0.187107 -0.850730
vn 0.982340 -0.187103 0.000003
vn -0.491169 -0.187110 -0.850731
vn -0.982339 -0.187109 -0.000001
vn -0.491169 -0.187106 0.850732
vn 0.491170 -0.187100 0.850732
vn 0.476312 -0.304158 -0.824994
vn 0.952623 -0.304154 0.000003
vn 0.476314 0.304161 -0.824992
vn 0.952623 0.304153 0.000007
vn -0.476310 -0.304159 -0.824995
vn -0.476309 0.304166 -0.824992
vn -0.952622 -0.304158 -0.000002
vn -0.952620 0.304164 0.000001
vn -0.476311 -0.304155 0.824996
vn -0.476309 0.304157 0.824996
vn 0.476311 -0.304150 0.824997
vn 0.476311 0.304149 0.824998
vn 0.621738 0.783225 0.000005
vn 0.310875 0.783220 -0.538446
vn 0.327322 0.755921 -0.566960
vn 0.654640 0.755941 -0.000008
vn -0.310874 0.783218 -0.538449
vn -0.327340 0.755908 -0.566968
vn -0.621754 0.783213 0.000005
vn -0.654667 0.755917 -0.000011
vn -0.310872 0.783217 0.538451
vn -0.327330 0.755938 0.566933
vn 0.310870 0.783219 0.538450
vn 0.327314 0.755949 0.566928
vn -0.000009 -1.000000 -0.000016
vn 0.321156 -0.766427 -0.556281
vn 0.642331 -0.766427 -0.000015
vn 0.654641 0.755940 -0.000009
vn 0.327322 0.755920 -0.566962
vn -0.321169 -0.766419 -0.556285
vn -0.327339 0.755908 -0.566967
vn -0.642330 -0.766428 -0.000011
vn -0.654666 0.755919 -0.000010
vn -0.321176 -0.766427 0.556269
vn -0.327329 0.755938 0.566933
vn 0.321159 -0.766439 0.556263
vn 0.327315 0.755948 0.566928
vn 0.083344 0.986010 -0.144353
vn 0.166688 0.986010 0.000002
vn -0.000003 1.000000 0.000005
vn -0.083343 0.986010 -0.144353
vn -0.166686 0.986010 0.000008
vn -0.083349 0.986008 0.144364
vn 0.083338 0.986010 0.144358
# 62 normals

usemtl defaultMat
f 2/1/2 1/2/1 13/3/13 14/4/14
f 1/5/1 3/6/3 15/7/15 13/8/13
f 3/6/3 4/9/4 16/10/16 15/7/15
f 4/9/4 5/11/5 17/12/17 16/10/16
f 5/11/5 6/13/6 18/14/18 17/12/17
f 6/13/6 2/1/2 14/4/14 18/14/18
f 13/3/13 19/15/19 20/16/20 14/4/14
f 19/15/19 21/17/21 22/18/22 20/16/20
f 21/17/21 7/19/7 8/20/8 22/18/22
f 15/7/15 23/21/23 19/22/19 13/8/13
f 23/21/23 24/23/24 21/24/21 19/22/19
f 24/23/24 9/25/9 7/26/7 21/24/21
f 16/10/16 25/27/25 23/21/23 15/7/15
f 25/27/25 26/28/26 24/23/24 23/21/23
f 26/28/26 10/29/10 9/25/9 24/23/24
f 17/12/17 27/30/27 25/27/25 16/10/16
f 27/30/27 28/31/28 26/28/26 25/27/25
f 28/31/28 11/32/11 10/29/10 26/28/26
f 18/14/18 29/33/29 27/30/27 17/12/17
f 29/33/29 30/34/30 28/31/28 27/30/27
f 30/34/30 12/35/12 11/32/11 28/31/28
f 14/4/14 20/16/20 29/33/29 18/14/18
f 20/16/20 22/18/22 30/34/30 29/33/29
f 22/18/22 8/20/8 12/35/12 30/34/30
f 34/36/34 33/37/33 32/38/32 31/39/31
f 1/40/1 2/41/2 31/42/31 32/43/32
f 2/41/2 6/44/6 41/45/41 31/42/31
f 33/37/33 36/46/36 35/47/35 32/38/32
f 3/48/3 1/40/1 32/43/32 35/49/35
f 42/50/42 34/36/34 31/39/31 41/51/41
f 36/46/36 38/52/38 37/53/37 35/47/35
f 4/54/4 3/48/3 35/49/35 37/55/37
f 6/44/6 5/56/5 39/57/39 41/45/41
f 38/58/38 40/59/40 39/60/39 37/61/37
f 5/56/5 4/54/4 37/55/37 39/57/39
f 40/59/40 42/62/42 41/63/41 39/60/39
f 34/64/34 42/65/42 55/66/55 46/67/46
f 43/68/43 45/69/45 54/70/54
f 46/71/46 55/72/55 54/73/54 45/74/45
f 42/65/42 40/75/40 53/76/53 55/66/55
f 43/68/43 54/70/54 52/77/52
f 55/78/55 53/79/53 52/80/52 54/81/54
f 47/82/47 46/71/46 45/74/45 44/83/44
f 43/68/43 44/84/44 45/69/45
f 33/85/33 34/64/34 46/67/46 47/86/47
f 49/87/49 47/82/47 44/83/44 48/88/48
f 43/68/43 48/89/48 44/84/44
f 36/90/36 33/85/33 47/86/47 49/91/49
f 51/92/51 49/87/49 48/88/48 50/93/50
f 43/68/43 50/94/50 48/89/48
f 38/95/38 36/90/36 49/91/49 51/96/51
f 53/79/53 51/97/51 50/98/50 52/80/52
f 43/68/43 52/77/52 50/94/50
f 40/75/40 38/95/38 51/96/51 53/76/53
f 58/99/58 57/100/57 56/101/56
f 8/102/8 7/103/7 56/101/56 57/100/57
f 58/99/58 56/101/56 59/104/59
f 7/103/7 9/105/9 59/104/59 56/101/56
f 58/99/58 59/104/59 60/106/60
f 9/105/9 10/107/10 60/106/60 59/104/59
f 58/99/58 60/106/60 61/108/61
f 10/107/10 11/109/11 61/108/61 60/106/60
f 58/99/58 61/108/61 62/110/62
f 11/109/11 12/111/12 62/110/62 61/108/61
f 58/99/58 62/110/62 57/100/57
f 12/111/12 8/102/8 57/100/57 62/110/62

# 66 faces
